<?xml version="1.0" encoding="utf-8"?>
<!-- Generator: Adobe Illustrator 16.0.0, SVG Export Plug-In . SVG Version: 6.00 Build 0)  -->
<!DOCTYPE svg PUBLIC "-//W3C//DTD SVG 1.1//EN" "http://www.w3.org/Graphics/SVG/1.1/DTD/svg11.dtd">
<svg version="1.1" id="圖層_1" xmlns="http://www.w3.org/2000/svg" xmlns:xlink="http://www.w3.org/1999/xlink" x="0px" y="0px"
	 width="200px" height="150px" viewBox="0 0 200 150" enable-background="new 0 0 200 150" xml:space="preserve">
<path fill="#E6E6F9" d="M190.188,136.544c0,6.603-5.351,11.951-11.951,11.951H21.763c-6.601,0-11.951-5.351-11.951-11.951V13.456
	c0-6.601,5.351-11.951,11.951-11.951h156.475c6.601,0,11.951,5.351,11.951,11.951v123.088H190.188z"/>
<g>
	<text transform="matrix(1 0 0 1 36 51.9033)" fill="#606078" font-family="'MicrosoftJhengHeiBold'" font-size="32">活動管理</text>
</g>
<g>
	<path fill="#FFFFFF" stroke="#3E3D4D" stroke-width="4" stroke-linecap="round" stroke-miterlimit="10" d="M142.302,105.407
		L100.796,67.72c-1.537-1.396-31.039-9.551-36.164-4.306c-5.251,5.376,6.473,33.695,8.12,35.191l41.505,37.688
		c6.067,5.509,15.452,5.057,20.962-1.011l8.094-8.911C148.82,120.302,148.368,110.916,142.302,105.407z"/>
	
		<circle fill="#FFFFFF" stroke="#A3A3A3" stroke-width="2" stroke-linecap="round" stroke-miterlimit="10" cx="82.536" cy="78.686" r="3.559"/>
	<g>
		<path fill="#A3A3A3" d="M88.641,90.867c0.249,1.593,1.003,2.955,2.26,4.088c1.608,1.445,2.907,1.62,3.899,0.52
			c0.286-0.318,0.455-0.688,0.509-1.103c0.052-0.415,0.014-0.854-0.113-1.313c-0.13-0.461-0.447-1.302-0.954-2.523
			c-0.622-1.503-0.907-2.721-0.855-3.646c0.05-0.929,0.4-1.754,1.054-2.479c0.94-1.044,2.094-1.495,3.459-1.354
			c1.364,0.142,2.689,0.791,3.974,1.946c1.215,1.095,2,2.069,2.354,2.927l-1.732,1.926c-0.282-1.188-0.98-2.285-2.099-3.291
			c-0.716-0.644-1.422-1.02-2.117-1.127c-0.698-0.105-1.271,0.09-1.723,0.592c-0.408,0.453-0.584,0.972-0.526,1.553
			c0.058,0.582,0.383,1.582,0.976,3.004c0.697,1.648,1.022,2.963,0.971,3.941c-0.051,0.979-0.406,1.839-1.069,2.574
			c-0.986,1.097-2.136,1.578-3.451,1.441c-1.315-0.135-2.675-0.834-4.078-2.098c-0.518-0.467-1.034-1.045-1.554-1.738
			s-0.854-1.298-1.006-1.813L88.641,90.867z"/>
		<path fill="#A3A3A3" d="M106.148,111.173l-2.065-1.858l1.705-4.179l-4.854-4.368l-3.92,2.184l-2.067-1.86l15.488-8.013
			l2.092,1.882L106.148,111.173z M106.666,103.105l2.613-6.307c0.093-0.229,0.305-0.59,0.638-1.085l-0.056-0.05
			c-0.371,0.318-0.707,0.561-1.008,0.725l-6.002,3.285L106.666,103.105z"/>
		<path fill="#A3A3A3" d="M114.457,118.65l-6.617-5.955l10.916-12.129l1.881,1.691l-9.465,10.516l4.735,4.263L114.457,118.65z"/>
		<path fill="#A3A3A3" d="M122.952,126.296l-6.718-6.046l10.916-12.128l6.441,5.799l-1.449,1.613l-4.564-4.108l-3.215,3.57
			l4.236,3.813l-1.445,1.604l-4.234-3.813l-3.354,3.729l4.838,4.354L122.952,126.296z"/>
	</g>
	<g>
		<path fill="#3E3D4D" stroke="#3E3D4D" stroke-miterlimit="10" d="M89.312,92.186c0.249,1.595,1.002,2.955,2.261,4.088
			c1.606,1.446,2.906,1.621,3.897,0.52c0.286-0.318,0.457-0.686,0.51-1.102c0.052-0.416,0.013-0.854-0.114-1.313
			c-0.13-0.461-0.446-1.302-0.953-2.522c-0.622-1.504-0.908-2.722-0.856-3.647c0.052-0.926,0.402-1.753,1.056-2.479
			c0.938-1.043,2.092-1.494,3.457-1.354c1.364,0.143,2.689,0.792,3.974,1.947c1.216,1.095,2.001,2.07,2.354,2.927l-1.733,1.927
			c-0.281-1.189-0.979-2.285-2.099-3.292c-0.714-0.643-1.421-1.019-2.116-1.126c-0.698-0.107-1.271,0.09-1.723,0.592
			c-0.409,0.452-0.585,0.971-0.527,1.553c0.059,0.58,0.384,1.582,0.976,3.003c0.698,1.649,1.023,2.964,0.972,3.942
			c-0.051,0.979-0.406,1.838-1.069,2.573c-0.986,1.097-2.136,1.577-3.452,1.44c-1.315-0.133-2.675-0.832-4.078-2.098
			c-0.517-0.465-1.034-1.044-1.553-1.736c-0.52-0.694-0.854-1.299-1.007-1.813L89.312,92.186z"/>
		<path fill="#3E3D4D" stroke="#3E3D4D" stroke-miterlimit="10" d="M106.82,112.492l-2.066-1.86l1.704-4.178l-4.854-4.368
			l-3.919,2.184l-2.068-1.86l15.489-8.013l2.09,1.881L106.82,112.492z M107.336,104.425l2.614-6.306
			c0.093-0.229,0.304-0.592,0.637-1.086l-0.055-0.051c-0.372,0.319-0.706,0.562-1.007,0.726l-6.002,3.285L107.336,104.425z"/>
		<path fill="#3E3D4D" stroke="#3E3D4D" stroke-miterlimit="10" d="M115.127,119.969l-6.615-5.953l10.914-12.129l1.881,1.69
			l-9.464,10.516l4.735,4.263L115.127,119.969z"/>
		<path fill="#3E3D4D" stroke="#3E3D4D" stroke-miterlimit="10" d="M123.622,127.615l-6.718-6.047l10.916-12.127l6.443,5.799
			l-1.451,1.611l-4.563-4.106l-3.214,3.569l4.234,3.813l-1.444,1.604l-4.235-3.813l-3.354,3.729l4.839,4.354L123.622,127.615z"/>
	</g>
</g>
</svg>
