<?xml version="1.0" encoding="utf-8"?>
<!-- Generator: Adobe Illustrator 16.0.0, SVG Export Plug-In . SVG Version: 6.00 Build 0)  -->
<!DOCTYPE svg PUBLIC "-//W3C//DTD SVG 1.1//EN" "http://www.w3.org/Graphics/SVG/1.1/DTD/svg11.dtd">
<svg version="1.1" id="圖層_1" xmlns="http://www.w3.org/2000/svg" xmlns:xlink="http://www.w3.org/1999/xlink" x="0px" y="0px"
	 width="200px" height="150px" viewBox="0 0 200 150" enable-background="new 0 0 200 150" xml:space="preserve">
<path fill="#E6E6F9" d="M190.188,136.544c0,6.603-5.351,11.951-11.951,11.951H21.763c-6.601,0-11.951-5.351-11.951-11.951V13.456
	c0-6.601,5.351-11.951,11.951-11.951h156.475c6.601,0,11.951,5.351,11.951,11.951v123.088H190.188z"/>
<text transform="matrix(1 0 0 1 36 51.9033)" fill="#606078" font-family="'MicrosoftJhengHeiBold'" font-size="32">關係管理</text>
<path fill="#3E3D4D" d="M78.188,106.962H69.15c8.312-2.33,14.413-9.944,14.413-19c0-10.907-8.842-19.75-19.75-19.75
	s-19.75,8.843-19.75,19.75c0,9.056,6.102,16.67,14.413,19h-9.038c-5.799,0-10.5,8.843-10.5,19.75s4.701,19.75,10.5,19.75h28.75
	c5.799,0,10.5-8.843,10.5-19.75S83.986,106.962,78.188,106.962z"/>
<path fill="#3E3D4D" d="M151.563,106.962h-9.037c8.312-2.33,14.412-9.944,14.412-19c0-10.907-8.842-19.75-19.75-19.75
	s-19.75,8.843-19.75,19.75c0,9.056,6.103,16.67,14.414,19h-9.039c-5.799,0-10.5,8.843-10.5,19.75s4.701,19.75,10.5,19.75h28.75
	c5.799,0,10.5-8.843,10.5-19.75S157.361,106.962,151.563,106.962z"/>
<g>
	<path fill="#B2B1B8" d="M122.271,127.268c-6.127-5.318-13.338-7.978-21.633-7.978c-8.511,0-15.813,2.696-21.909,8.09v-3.414
		c5.989-5.396,13.307-8.09,21.954-8.09c8.448,0,15.645,2.674,21.588,8.021V127.268z M122.247,113.104
		c-6.11-5.349-13.313-8.021-21.608-8.021c-8.449,0.015-15.751,2.711-21.909,8.088v-3.414c5.958-5.362,13.276-8.053,21.954-8.065
		c8.448,0,15.637,2.682,21.563,8.043V113.104z"/>
</g>
</svg>
