<?xml version="1.0" encoding="utf-8"?>
<!-- Generator: Adobe Illustrator 16.0.0, SVG Export Plug-In . SVG Version: 6.00 Build 0)  -->
<!DOCTYPE svg PUBLIC "-//W3C//DTD SVG 1.1//EN" "http://www.w3.org/Graphics/SVG/1.1/DTD/svg11.dtd">
<svg version="1.1" id="圖層_1" xmlns="http://www.w3.org/2000/svg" xmlns:xlink="http://www.w3.org/1999/xlink" x="0px" y="0px"
	 width="200px" height="150px" viewBox="0 0 200 150" enable-background="new 0 0 200 150" xml:space="preserve">
<path fill="#E6E6F9" d="M190.188,136.544c0,6.603-5.351,11.951-11.951,11.951H21.763c-6.601,0-11.951-5.351-11.951-11.951V13.456
	c0-6.601,5.351-11.951,11.951-11.951h156.475c6.601,0,11.951,5.351,11.951,11.951v123.088H190.188z"/>
<g>
	<text transform="matrix(1 0 0 1 36 51.9033)" fill="#606078" font-family="'MicrosoftJhengHeiBold'" font-size="32">換貨管理</text>
</g>
<g>
	<g>
		<g>
			<g>
				<path fill="#666666" d="M64.43,106.609c0-5.654-3.27-10.229-7.308-10.229"/>
				<path fill="#666666" d="M57.123,96.38c0,5.211,3.257,9.429,7.283,9.429"/>
			</g>
			<g>
				<path fill="#666666" d="M64.43,106.609c0-5.654,3.268-10.229,7.307-10.229"/>
				<path fill="#666666" d="M71.737,96.38c0,5.211-3.258,9.429-7.283,9.429"/>
			</g>
		</g>
		<path fill="#FFFFFF" stroke="#666666" stroke-width="4" stroke-miterlimit="10" d="M64.43,104.365H53.928
			c-3.072,0-5.561,4.256-5.561,9.507v3.856h16.063L64.43,104.365L64.43,104.365z"/>
		<path fill="#FFFFFF" stroke="#666666" stroke-width="4" stroke-miterlimit="10" d="M80.495,117.729v-3.856
			c0-5.251-2.489-9.507-5.561-9.507H64.43v13.363H80.495z"/>
		<path fill="#FFFFFF" stroke="#666666" stroke-width="4" stroke-miterlimit="10" d="M64.43,117.729v13.364h10.503
			c3.072,0,5.561-4.257,5.561-9.508v-3.856H64.43z"/>
		<path fill="#FFFFFF" stroke="#666666" stroke-width="4" stroke-miterlimit="10" d="M48.367,117.729v3.856
			c0,5.251,2.489,9.508,5.561,9.508H64.43v-13.364H48.367z"/>
	</g>
	<g>
		<path fill="none" stroke="#3E3D4D" stroke-width="7" stroke-miterlimit="10" d="M125.059,129.002
			c-4.393,2.141-9.324,3.341-14.539,3.341c-6.328,0-12.242-1.77-17.277-4.841c-3.923-2.394-7.313-5.58-9.944-9.333
			c-1.796-2.561-3.239-5.389-4.259-8.411c-1.128-3.339-1.739-6.916-1.739-10.635"/>
		<path fill="none" stroke="#3E3D4D" stroke-width="7" stroke-miterlimit="10" d="M80.173,85.595c1.557-3.491,3.7-6.662,6.304-9.392
			c3.348-3.513,7.457-6.293,12.063-8.073c3.717-1.438,7.756-2.226,11.979-2.226c5.988,0,11.604,1.584,16.453,4.354
			c5.561,3.176,10.111,7.911,13.066,13.608c2.365,4.569,3.701,9.758,3.701,15.258c0,3.364-0.5,6.614-1.432,9.674"/>
		<polygon fill="#3E3D4D" stroke="#3E3D4D" stroke-miterlimit="10" points="151.633,111.695 135.701,119.697 133.307,102.028 		"/>
		<polygon fill="#3E3D4D" stroke="#3E3D4D" stroke-miterlimit="10" points="67.314,102.595 79.308,89.401 87.888,105.031 		"/>
	</g>
</g>
</svg>
